<svg fill="#000000" height="48" viewBox="0 0 24 24" width="48" xmlns="http://www.w3.org/2000/svg" xmlns:xlink="http://www.w3.org/1999/xlink">
    <defs>
        <path d="M0 0h24v24H0z" id="a"/>
    </defs>
    <clipPath id="b">
        <use overflow="visible" xlink:href="#a"/>
    </clipPath>
    <path clip-path="url(#b)" d="M11 5.08V2c-5 .5-9 4.81-9 10s4 9.5 9 10v-3.08c-3-.48-6-3.4-6-6.92s3-6.44 6-6.92zM18.97 11H22c-.47-5-4-8.53-9-9v3.08C16 5.51 18.54 8 18.97 11zM13 18.92V22c5-.47 8.53-4 9-9h-3.03c-.43 3-2.97 5.49-5.97 5.92z"/>
</svg>