<?xml version="1.0" encoding="utf-8"?>
<!-- Generator: Adobe Illustrator 15.0.2, SVG Export Plug-In . SVG Version: 6.00 Build 0)  -->
<!DOCTYPE svg PUBLIC "-//W3C//DTD SVG 1.1//EN" "http://www.w3.org/Graphics/SVG/1.1/DTD/svg11.dtd">
<svg version="1.1" id="Layer_1" xmlns="http://www.w3.org/2000/svg" xmlns:xlink="http://www.w3.org/1999/xlink" x="0px" y="0px"
	 width="435px" height="442px" viewBox="0 0 435 442" enable-background="new 0 0 435 442" xml:space="preserve">
<rect x="-32" y="-28" width="500" height="500"/>
<g>
	<path fill="#6B6B6B" d="M307.455,295.848c-4.664,14.752-6.582,27.705-5.754,38.859c0.828,11.153,3.842,18.642,9.035,22.458
		c2.91,2.14,6.08,2.897,9.514,2.269c3.43-0.629,6.246-2.436,8.445-5.426c4.338-5.901,4.699-13.484,1.086-22.746
		C326.164,321.998,318.725,310.195,307.455,295.848z"/>
	<path fill="#6B6B6B" d="M243.826,18l-46.75,17.33l-36.428-4.025l-67.394,21.53L1,18H0v219l28.724,16L9.808,301l22.207,19l8.682,80
		L0,442h145l105.896-24.818l75.447,5.707l41.379-5.616L420.826,442H425V293.33l-27.775-53.104l7.064-41.379l-35.459-76.551
		L424.734,18H243.826z"/>
	<polygon fill="#6B6B6B" points="425,17.504 424.734,18 425,18 	"/>
</g>
<g>
	<path fill="#BBF0FD" d="M317.455,278.848c-4.664,14.752-6.582,27.705-5.754,38.859c0.828,11.153,3.842,18.642,9.035,22.458
		c2.91,2.14,6.08,2.897,9.514,2.269c3.43-0.629,6.246-2.436,8.445-5.426c4.338-5.901,4.699-13.484,1.086-22.746
		C336.164,304.998,328.725,293.195,317.455,278.848z"/>
	<path fill="#BBF0FD" d="M253.826,1l-46.75,17.33l-36.428-4.025l-67.394,21.53L11,1h-1v219l28.724,16l-18.916,48l22.207,19l8.682,80
		L10,425h145l105.896-24.818l75.447,5.707l41.379-5.616L430.826,425H435V276.33l-27.775-53.104L425,169.5L400.5,84l34.234-83
		H253.826z M347.592,343.207c-4.393,5.975-9.555,9.57-15.477,10.785c-5.926,1.217-11.562-0.143-16.912-4.076
		c-16.916-12.437-18.936-39.616-6.051-81.537l-9.1-10.871c-25.979-31.1-41.346-49.852-46.096-56.251l-17.596-23.301
		c1.016,2.082,3.631,6.851,7.844,14.31c20.52,36.061,32.48,63.517,35.883,82.382c3.404,18.864,1.316,33.454-6.262,43.759
		c-5.785,7.869-13.553,12.006-23.307,12.41c-9.752,0.406-19.584-3.036-29.496-10.323c-12.434-9.14-28.141-27.508-47.125-55.101
		C154.91,237.8,141.17,220.88,132.674,214.63c-5.193-3.816-10.498-5.627-15.918-5.428c-5.418,0.198-9.66,2.383-12.725,6.552
		c-4.744,6.453-5.617,15.144-2.625,26.071c2.998,10.931,8.586,19.403,16.77,25.418c7.477,5.495,15.498,7.275,24.076,5.336
		c3.119-0.615,5.191-0.546,6.211,0.204c2.361,1.736,4.463,5.678,6.311,11.82c1.844,6.146,1.641,10.751-0.615,13.82
		c-2.43,3.306-7.078,4.768-13.949,4.383c-6.869-0.383-12.9-2.486-18.092-6.304c-13.928-10.239-23.857-25.417-29.791-45.538
		c-5.938-20.118-3.697-37.262,6.715-51.425c7.404-10.068,17.416-15.405,30.031-16.011c12.617-0.601,25.215,3.721,37.795,12.969
		c15.037,11.186,32.398,31.43,52.09,60.735c13.664,20.177,24.311,33.069,31.945,38.681c7.084,5.211,12.535,5.218,16.352,0.025
		c7.057-9.6,1.666-32.472-16.182-68.625c-17.848-36.146-42.643-75.168-74.393-117.055c-1.641-2.052-2.268-3.998-1.889-5.839
		c0.383-1.838,3.064-7.136,8.049-15.892c4.984-8.757,7.676-13.409,8.082-13.961c1.502-2.043,2.758-2.516,3.762-1.415l20.914,25.212
		l66.535,77.149c9.168,10.622,22.326,26.777,39.473,48.476c6.82-19.993,7.621-39.795,2.404-59.41l13.574,9.979
		c3.967,15.051,1.479,35.497-7.455,61.332c15.908,23.203,24.949,43.961,27.123,62.275
		C359.424,316.479,356.203,331.49,347.592,343.207z"/>
	<polygon fill="#BBF0FD" points="435,0.504 434.734,1 435,1 	"/>
</g>
<g>
	<path d="M340.588,154.402c4.037,16.047,1.506,37.849-7.584,65.396c16.188,24.739,25.387,46.872,27.6,66.399
		c2.211,19.525-1.068,35.531-9.83,48.025c-4.471,6.369-9.723,10.205-15.75,11.498c-6.029,1.299-11.766-0.15-17.209-4.346
		c-17.212-13.258-19.268-42.238-6.158-86.938l-9.259-11.59c-26.435-33.161-42.071-53.156-46.905-59.979l-17.906-24.844
		c1.033,2.219,3.695,7.303,7.982,15.256c20.881,38.451,33.052,67.725,36.514,87.84c3.465,20.113,1.34,35.67-6.372,46.656
		c-5.886,8.393-13.791,12.803-23.716,13.232c-9.924,0.436-19.929-3.234-30.015-11.006c-12.652-9.744-28.636-29.33-47.954-58.752
		c-19.322-29.42-33.305-47.459-41.949-54.124c-5.284-4.07-10.684-6-16.199-5.788c-5.512,0.212-9.828,2.541-12.947,6.985
		c-4.828,6.882-5.716,16.146-2.67,27.799c3.049,11.657,8.736,20.688,17.062,27.102c7.608,5.857,15.771,7.756,24.5,5.689
		c3.174-0.656,5.283-0.584,6.32,0.217c2.403,1.85,4.541,6.055,6.422,12.604c1.876,6.553,1.669,11.463-0.627,14.736
		c-2.473,3.525-7.201,5.082-14.194,4.672c-6.989-0.408-13.126-2.65-18.409-6.721c-14.173-10.918-24.277-27.102-30.315-48.553
		c-6.042-21.452-3.763-39.731,6.833-54.833c7.535-10.735,17.723-16.426,30.56-17.072c12.839-0.641,25.658,3.967,38.459,13.828
		c15.302,11.926,32.969,33.512,53.006,64.758c13.905,21.514,24.738,35.26,32.508,41.242c7.208,5.557,12.755,5.566,16.639,0.027
		c7.181-10.236,1.695-34.621-16.466-73.17c-18.162-38.541-43.393-80.147-75.701-124.81c-1.669-2.188-2.307-4.263-1.922-6.226
		c0.391-1.96,3.118-7.608,8.19-16.944c5.071-9.337,7.812-14.298,8.224-14.886c1.529-2.178,2.807-2.682,3.828-1.508l21.282,26.882
		l67.704,82.261c9.329,11.326,22.721,28.552,40.168,51.688c6.939-21.318,7.754-42.432,2.445-63.347L340.588,154.402z
		 M320.105,265.598c-4.746,15.73-6.697,29.543-5.854,41.436c0.842,11.895,3.91,19.877,9.193,23.945
		c2.961,2.281,6.188,3.09,9.682,2.42c3.488-0.672,6.355-2.598,8.594-5.785c4.414-6.293,4.781-14.379,1.105-24.254
		C339.143,293.482,331.574,280.896,320.105,265.598z"/>
</g>
</svg>
